<?xml version="1.0" encoding="iso-8859-1"?>
<!-- Generator: Adobe Illustrator 19.0.0, SVG Export Plug-In . SVG Version: 6.00 Build 0)  -->
<svg version="1.1" id="Layer_1" xmlns="http://www.w3.org/2000/svg" xmlns:xlink="http://www.w3.org/1999/xlink" x="0px" y="0px"
	 viewBox="0 0 512.001 512.001" style="enable-background:new 0 0 512.001 512.001;" xml:space="preserve">
<g>
	<g>
		<path d="M508.394,168.986c-0.005-0.006-0.008-0.013-0.013-0.018c-0.003-0.005-0.008-0.008-0.011-0.014
			c-29.022-38.863-67.49-71.17-111.057-93.043c-43.637-21.907-92.509-33.487-141.335-33.487s-97.698,11.58-141.334,33.487
			C72.803,96.917,33.71,128.619,3.591,168.948c-6.084,8.146-4.004,18.526,2.978,23.967l221.613,172.367l-50.946,39.625
			c-7.355,5.72-8.762,16.281-3.163,23.727c19.276,25.637,49.896,40.943,81.907,40.943c31.702,0,62.045-15.049,81.359-40.29
			c0.123-0.148,0.259-0.279,0.379-0.432c5.875-7.552,4.306-18.268-2.993-23.949l-50.946-39.625l221.611-172.365
			C512.581,187.325,514.392,177.05,508.394,168.986z M273.045,77.092c43.879,2.708,86.286,15.787,123.793,37.513L295.272,272.596
			c-7.104-2.955-14.554-5.107-22.227-6.397V77.092z M238.912,77.092v189.107c-7.672,1.29-15.122,3.443-22.227,6.399L115.119,114.606
			C152.627,92.879,195.034,79.8,238.912,77.092z M41.119,176.549c13.593-16.121,28.912-30.529,45.554-43.07L187.603,290.48
			L41.119,176.549z M298.869,420.261c-12.008,9.771-26.974,15.182-42.891,15.182c-15.933,0-30.921-5.39-42.929-15.152l42.929-33.39
			L298.869,420.261z M255.978,343.662l-40.423-31.44c12.131-8.965,26.242-13.31,40.423-13.31c14.154,0,28.27,4.329,40.423,13.31
			L255.978,343.662z M324.354,290.48l100.929-157.002c16.643,12.54,31.962,26.949,45.555,43.07L324.354,290.48z"/>
	</g>
</g>
<g>
</g>
<g>
</g>
<g>
</g>
<g>
</g>
<g>
</g>
<g>
</g>
<g>
</g>
<g>
</g>
<g>
</g>
<g>
</g>
<g>
</g>
<g>
</g>
<g>
</g>
<g>
</g>
<g>
</g>
</svg>
